<svg xmlns="http://www.w3.org/2000/svg" width="192" height="192" viewBox="0 0 192 192">
  <defs>
    <radialGradient id="bg" cx="50%" cy="40%" r="60%">
      <stop offset="0%" stop-color="#FF6B35"/>
      <stop offset="100%" stop-color="#E63946"/>
    </radialGradient>
  </defs>
  <!-- Background circle -->
  <circle cx="96" cy="96" r="92" fill="url(#bg)"/>
  <!-- Paint palette body -->
  <path d="M96 56c-24 0-44 18-44 42 0 20 14 36 32 36 6 0 10-4 10-10 0-2 0-4-2-6-2-2-4-6-4-10 0-8 8-16 18-16 6 0 12 2 16 6 4 4 10 6 16 6 10 0 18-6 18-14 0-28-24-50-56-50z" fill="#FFF" opacity=".95"/>
  <!-- Color dots on palette -->
  <circle cx="78" cy="88" r="6" fill="#FF6B35"/>
  <circle cx="104" cy="76" r="6" fill="#E63946"/>
  <circle cx="120" cy="96" r="6" fill="#457B9D"/>
  <circle cx="106" cy="112" r="5" fill="#2A9D8F"/>
  <circle cx="84" cy="106" r="5" fill="#E9C46A"/>
  <!-- Thumb hole -->
  <circle cx="96" cy="86" r="4" fill="url(#bg)"/>
</svg>
